<svg id="Layer_1" data-name="Layer 1" xmlns="http://www.w3.org/2000/svg" viewBox="0 0 2103.92 2757.21"><defs><style>.cls-1{fill:#ffb200;}.cls-2{fill:#d66b09;}.cls-3{fill:#371a45;}.cls-4{fill:#ffc943;}.cls-5{fill:#ffec90;}.cls-6{opacity:0.35;}.cls-7{opacity:0.41;}.cls-8{fill:#fff;}.cls-9{fill:#32b1d1;}.cls-10{fill:#73befd;}.cls-11{fill:#1f9fff;}.cls-12{opacity:0.7;}.cls-13{fill:#293856;}.cls-14{fill:#371a46;}.cls-15{fill:#111a28;}.cls-16{fill:#f9195a;}.cls-17{opacity:0.5;}.cls-18{opacity:0.3;}.cls-19{fill:#102770;}.cls-20{fill:#fce5e5;}</style></defs><path class="cls-1" d="M2725,2632.62a723.47,723.47,0,0,1-49.82,205c-67,165.43-195.18,306.37-370.63,385.72-175.84,79.53-366.82,82.58-535.53,23.24a724.86,724.86,0,0,1-185.74-97.6c176.6-44.41,380.7-116.05,591.94-211.58S2575.06,2735.91,2725,2632.62Z" transform="translate(-997.91 -545.9)"/><path class="cls-2" d="M2175.26,2937.4c211.22-95.53,399.8-201.49,549.78-304.78a715.35,715.35,0,0,1-13.44,87.13c-115.42,83.84-299.82,187.36-514.56,284.48-205.68,93-397.4,161.27-535.5,194.35a719.49,719.49,0,0,1-78.22-49.6C1759.92,3104.57,1964,3032.93,2175.26,2937.4Z" transform="translate(-997.91 -545.9)"/><path class="cls-1" d="M2695.83,2354.6c-117.12,94.72-348.47,227.28-624.8,352.28s-528.71,211.16-677.2,236.56a730.33,730.33,0,0,1-42-79.4c-.59-1.32-1.16-2.56-1.76-3.92-5.44-12.2-10.52-24.44-15.2-36.84a720.65,720.65,0,0,1-27.2-87.48c-.28-1.2-.56-2.36-.84-3.56a721.36,721.36,0,0,1,137-612.68h0c6.92-8.8,14.12-17.44,21.52-25.92a716.81,716.81,0,0,1,245.76-182.36c13.48-6.08,27.09-11.72,40.72-17,183.08-69.84,379.08-59.84,547.41,14.6,1,.48,2.11.92,3.15,1.44q23.72,10.56,46.6,23a718.62,718.62,0,0,1,153.32,110.4,708.72,708.72,0,0,1,80.2,89.64c2.65,3.48,5.24,7,7.88,10.6,2.16,2.92,4.24,5.88,6.32,8.84a715.23,715.23,0,0,1,47.72,78.2c5.4,10.16,10.52,20.48,15.44,31,1.33,2.88,2.68,5.76,4,8.68A726.62,726.62,0,0,1,2695.83,2354.6Z" transform="translate(-997.91 -545.9)"/><path class="cls-2" d="M2659.94,2262c1.35,2.86,2.68,5.73,4,8.64a724.62,724.62,0,0,1,31.88,83.95c-117.11,94.72-348.46,227.31-624.81,352.29s-528.7,211.16-677.16,236.55a725,725,0,0,1-42-79.39c-.59-1.3-1.16-2.57-1.73-3.89,140.78-15.55,397.67-98.92,679.38-226.33C2322.35,2501.37,2561.77,2357.63,2659.94,2262Z" transform="translate(-997.91 -545.9)"/><path class="cls-2" d="M1298.15,2617.44c-3.67,0-7.18-.08-10.55-.26l1.71-33c99.33,5.08,357.39-76.68,627.78-199C2202,2256.38,2442.22,2109.08,2488.36,2035l28,17.46c-50,80.32-290.85,229.54-585.71,362.89C1660.54,2537.52,1409.69,2617.44,1298.15,2617.44Z" transform="translate(-997.91 -545.9)"/><path class="cls-2" d="M1322,2372.35l-4.85-32.69c111-16.49,303.18-82.45,501.47-172.13,207.8-94,387.76-197.79,469.66-270.93l22,24.65c-84.23,75.22-267.41,181.13-478.05,276.39C1631.36,2288.49,1435.85,2355.44,1322,2372.35Z" transform="translate(-997.91 -545.9)"/><path class="cls-2" d="M1308,2748.76h-1.16l.16-33h1.09c114.24,0,380-85.51,662.12-213.12,297-134.34,546.63-285.83,606.94-368.39l26.68,19.49c-64.34,88.08-313.5,240.39-620,379C1697.75,2662.08,1426.53,2748.76,1308,2748.76Z" transform="translate(-997.91 -545.9)"/><path class="cls-2" d="M1769.65,3254.82l-.59-8.2-3.1-7.7,1.2-.48,1.3-.1c97.83-7.05,284-67.22,474.32-153.29,191.37-86.55,354.86-183.63,426.69-253.36l11.51,11.85c-73.11,71-238.4,169.28-431.39,256.56C2054.69,3188.25,1870.79,3247.53,1769.65,3254.82Z" transform="translate(-997.91 -545.9)"/><path class="cls-3" d="M2008.3,3303.11a737.66,737.66,0,0,1-434.41-141.2l-27.61-20.11,33.13-8.34c182-45.77,385.76-118.61,589.26-210.65S2561.39,2725.9,2716,2619.45l28.13-19.37-3.12,34c-24.2,263.5-188.89,494.88-429.79,603.83A734.68,734.68,0,0,1,2008.3,3303.11Zm-387.13-147.39c200.77,131.66,456.92,152.5,676.82,53s373.43-305.56,407.11-543.26c-150.5,100.7-330.62,199.36-523.24,286.47S1796.17,3109.21,1621.17,3155.72Z" transform="translate(-997.91 -545.9)"/><path class="cls-4" d="M3078.18,2195.24c43.46,96.1-99.83,262.94-353.14,437.38-150,103.29-338.56,209.25-549.78,304.78S1759.92,3104.57,1583.32,3149c-298.28,75-518.17,72.44-561.63-23.67-39.48-87.28,75-232.84,286-389.5a719.12,719.12,0,0,0,27.19,87.5c-58.34,47.7-87.06,85.55-77.08,107.61,10.16,22.47,59.17,25.62,136,12.5,148.46-25.39,400.83-111.57,677.16-236.55s507.7-257.57,624.81-352.29c60.57-49,90.57-87.9,80.41-110.37-10-22-57.37-25.49-131.69-13.2a718.62,718.62,0,0,0-47.74-78.19C2853.78,2097.83,3038.7,2108,3078.18,2195.24Z" transform="translate(-997.91 -545.9)"/><path class="cls-5" d="M1291.55,3019c-54.68,0-96.27-11.31-109.93-41.51-19.58-43.28,25.66-109,134.45-195.27l15.4,19.42c-93.18,73.9-140.76,135.82-127.28,165.63,16.14,35.67,134.54,47.21,415.17-37.64,144-43.58,306.87-105.85,471-180.06s318.35-155.37,446.21-234.74c249-154.71,318.59-251.24,302.46-286.91-13.49-29.82-91.41-35-208.44-13.81l-4.41-24.38c136.64-24.71,215.85-15.31,235.43,28,38.21,84.49-179.05,235.61-312,318.17-128.76,79.94-284,161.64-449.07,236.27s-329,137.31-474,181.2C1530.31,2982.45,1389.82,3019,1291.55,3019Z" transform="translate(-997.91 -545.9)"/><path class="cls-5" d="M1253.91,3116.09c-89,0-145.82-20.46-164.32-61.37-38.34-84.79,97.12-211.43,217.52-302.73l15,19.75c-155.39,117.84-233.86,219.81-209.91,272.77,30.18,66.73,215.59,62.37,483.86-11.37,164-45.07,348.53-113.12,533.54-196.79s357.9-177.25,500.09-270.68c232.55-152.77,358.26-289.12,328.09-355.84-23.95-53-152.34-61.38-343.46-22.51l-4.93-24.29c148.06-30.11,332.61-48.21,371,36.58,36.64,81-86.22,222-337.07,386.77-143.25,94.13-317.35,188.37-503.48,272.55S1767.86,3011.63,1602.6,3057C1459.34,3096.41,1341.16,3116.09,1253.91,3116.09Z" transform="translate(-997.91 -545.9)"/><path class="cls-3" d="M1231,3217.83c-120.26,0-198.07-28.81-223.9-85.93-42.1-93.08,61.28-238.31,291.08-408.93l19.41-14.41,5.68,23.49a707.66,707.66,0,0,0,26.58,85.55l4.12,10.79-8.93,7.31c-81.35,66.51-73,87.75-72.64,88.63s11.15,21.7,118.74,3.31c151.65-25.93,409.63-116.11,673.26-235.35s501.73-253.4,621.35-350.15c84.82-68.65,76.29-90.44,75.89-91.34s-10.84-21.14-114.5-4l-11.39,1.88-5.37-10.22A705.42,705.42,0,0,0,2583.7,2162l-13.88-19.78,23.63-5.06c279.88-59.9,457.21-41.61,499.3,51.47h0c46.07,101.86-84.65,268.48-358.64,457.16C2578,2753.31,2387,2859.18,2181.86,2952S1771,3118.27,1587.22,3164.5C1445.51,3200.14,1325.23,3217.83,1231,3217.83ZM1298.25,2763c-197.46,150.17-295.16,282.41-262,355.77,37.91,83.82,246,89.48,543.14,14.74,182-45.77,385.76-118.61,589.26-210.65S2561.39,2725.9,2716,2619.45c252.34-173.78,385.55-333.8,347.64-417.62h0c-33.18-73.36-197-87.32-440.17-38.21,10.59,16.19,20.57,32.86,29.84,49.82,80.81-12.12,124.63-4.36,137.54,24.17,13.7,30.31-13.28,71.43-84.92,129.41-123.43,99.83-358.31,232.33-628.29,354.43s-524.57,211-681,237.74c-90.89,15.51-139.59,8.63-153.29-21.68-12.91-28.54,10.22-66.57,72.69-119.26C1309.34,2800.09,1303.42,2781.59,1298.25,2763Z" transform="translate(-997.91 -545.9)"/><g class="cls-6"><path class="cls-3" d="M2725,2632.62a723.47,723.47,0,0,1-49.82,205c-67,165.43-195.18,306.37-370.63,385.72-175.84,79.53-366.82,82.58-535.53,23.24a724.86,724.86,0,0,1-185.74-97.6c176.6-44.41,380.7-116.05,591.94-211.58S2575.06,2735.91,2725,2632.62Z" transform="translate(-997.91 -545.9)"/></g><g class="cls-7"><path class="cls-8" d="M2695.82,2354.58q-20.45,16.55-45.41,34.53-10.08-28.41-22.7-56.39c-1.33-2.9-2.66-5.76-4-8.62q-7.34-15.79-15.39-31a722.06,722.06,0,0,0-47.74-78.21c-2.08-3-4.21-5.91-6.35-8.84a709.74,709.74,0,0,0-88.09-100.26A719.4,719.4,0,0,0,2263.08,1971c-180.88-80-393.75-85.57-588.12,2.36a716.54,716.54,0,0,0-306.11,262.17,717,717,0,0,1,342.37-324.28c194.37-87.89,407.24-82.35,588.08-2.36a717.4,717.4,0,0,1,291.15,235c2.18,2.94,4.26,5.91,6.35,8.89a716,716,0,0,1,47.74,78.16q8.05,15.27,15.39,31c1.38,2.86,2.71,5.72,4,8.66A726.67,726.67,0,0,1,2695.82,2354.58Z" transform="translate(-997.91 -545.9)"/></g><path class="cls-3" d="M1385.86,2961l-5.66-9.25a741.4,741.4,0,0,1-42.92-81.14c-6.22-13.74-12-27.75-17.32-41.62a738.66,738.66,0,0,1-27.78-89.42c-82.89-342.82,90.56-697.3,412.42-842.86s702.6-41.73,905.29,246.91a737.09,737.09,0,0,1,48.81,79.93c6.93,13.12,13.6,26.75,19.81,40.48h0a739.32,739.32,0,0,1,32.59,85.81l3.21,10.35-8.43,6.82c-123.42,99.83-358.3,232.33-628.28,354.43s-524.57,211-681,237.74Zm621.76-1097.72a702.11,702.11,0,0,0-289.83,62.59c-307.87,139.23-473.79,478.28-394.51,806.17a705.88,705.88,0,0,0,26.58,85.55c5.06,13.29,10.63,26.68,16.58,39.84a709.1,709.1,0,0,0,35.45,68.29c152.9-28.23,405-117,662.52-233.44s490.66-247.18,612.82-343.35a710.8,710.8,0,0,0-27.87-71.72h0c-5.94-13.13-12.32-26.16-19-38.73a706.17,706.17,0,0,0-46.7-76.48C2448.74,1969.82,2231.21,1863.29,2007.62,1863.29Z" transform="translate(-997.91 -545.9)"/><g class="cls-6"><path class="cls-3" d="M3072.32,2291.44c-39.73,94.12-165,215.72-347.29,341.2-150,103.28-338.56,209.24-549.75,304.76s-415.37,167.16-592,211.6c-298.29,75-518.17,72.4-561.65-23.68-26.39-58.32,16-142.72,110.08-239-15.52,36.68-18,69.24-5.84,96.2,43.48,96.12,263.37,98.72,561.64,23.68,176.6-44.4,380.73-116,592-211.56s399.81-201.52,549.77-304.8C2928.87,2421.24,3011.43,2353.84,3072.32,2291.44Z" transform="translate(-997.91 -545.9)"/></g><path class="cls-8" d="M1968.78,1880c156.92,12,432.19,12.36,456-142.34a513.31,513.31,0,0,0,5.37-65.66c3.6-154.56-46.38-360.33-107.79-410.72-35.06-28.75-100.28-37.38-171.86-30.54-142.24,13.6-309.75,88.16-316.2,187C1828,1512.8,1811.86,1868.08,1968.78,1880Z" transform="translate(-997.91 -545.9)"/><g class="cls-6"><path class="cls-3" d="M1968.78,1880c156.92,12,432.19,12.36,456-142.34a513.31,513.31,0,0,0,5.37-65.66c-44.89,32.22-104-.81-109.48-42.84-33.71-259.51-125.27-362.56-170.17-398.42-142.24,13.6-309.75,88.16-316.2,187C1828,1512.8,1811.86,1868.08,1968.78,1880Z" transform="translate(-997.91 -545.9)"/></g><path class="cls-3" d="M2085.81,1900.76c-39.8,0-79.79-1.85-118.24-4.78-156.48-11.91-160.69-305.42-149.28-479.32,3.93-59.86,57.9-115.29,152-156.07,118.44-51.35,290.6-70.4,362.22-11.65h0c80.85,66.33,131,341.69,108.08,491.19C2421.06,1867.11,2255.59,1900.76,2085.81,1900.76Zm108.88-656.42c-64.62,0-142.39,15.56-211.7,45.61-81.32,35.25-129.7,82.2-132.76,128.81-6.69,101.82-17.81,434.84,119.77,445.32,154.73,11.78,417.51,10.7,438.93-128.8,22.9-149.11-31.35-408-96.75-461.6h0C2288.13,1254,2245.47,1244.34,2194.69,1244.34Z" transform="translate(-997.91 -545.9)"/><path class="cls-8" d="M2295.44,1521.45l71-24.74a28.24,28.24,0,0,1,36.93,20.73c12.16,57.16,29.58,175.29-28.34,196.77-70.2,26-91.14-54.54-98.45-164.3A28.21,28.21,0,0,1,2295.44,1521.45Z" transform="translate(-997.91 -545.9)"/><g class="cls-6"><path class="cls-3" d="M2276.69,1549.74c7,109.77,27.81,190.42,98.06,164.52,28.86-10.59,39.1-45.23,40.59-84.37-6.23,10.95-14.86,19.26-26.6,23.57-62.9,23.15-86.15-39.07-95.33-131.19A27.93,27.93,0,0,0,2276.69,1549.74Z" transform="translate(-997.91 -545.9)"/></g><path class="cls-3" d="M2350.14,1735.15a60,60,0,0,1-33.38-9.78c-32.79-21.33-49.55-73.55-56.05-174.6a44.3,44.3,0,0,1,29.69-44.56l71-24.57a44.23,44.23,0,0,1,57.77,32.63c17.88,85,25.65,191.24-38.91,215A87.31,87.31,0,0,1,2350.14,1735.15Zm25.78-224a12.46,12.46,0,0,0-4,.69l-71,24.58a12.22,12.22,0,0,0-8.23,12.27c2,31.69,8.24,128.14,41.57,149.83,9,5.84,20.43,6.08,35,.71,38.46-14.17,34.85-101.45,18.65-178.4a12,12,0,0,0-5.9-8.07A12.42,12.42,0,0,0,2375.92,1511.18Zm-80.28,10.15h0Z" transform="translate(-997.91 -545.9)"/><path class="cls-3" d="M2342.8,1292.11a134.89,134.89,0,0,1-24.88,9.88c-8.54,2.64-17.36,4.47-26.18,6.35s-17.73,3.51-26.73,5-18.08,2.75-27.47,3.47a2.23,2.23,0,0,1-2.42-2,2.29,2.29,0,0,1,.8-1.92,229,229,0,0,1,22.75-16.21c7.83-4.87,15.78-9.48,23.86-13.72a245.32,245.32,0,0,1,24.66-11.7,124.37,124.37,0,0,1,26.16-7.57A15.2,15.2,0,0,1,2343,1292Z" transform="translate(-997.91 -545.9)"/><path class="cls-8" d="M2056.21,1813.65l-57.85-17.58c-65.31-19.84-136.21-16.53-198.15,11.79-21.46,9.81-42.19,22.73-59.34,39.74-62.68,62.16-64.44,187-21.88,237.57,16.78,19.95,34.83,42.1,34.83,42.1-11.92,17.08-94.06,155.67-28,210.76,57.88,48.25,164.7,40.33,221-35.55,37.2-50.15,44.75-108,42.63-152.23-2.47-51.71-28.74-121.52,14-139.71,63.79-27.13,121.73-12.09,214-82.62,108-82.53,124.86-260.28,76.89-410.56-34.49-108.08-244.45-312.74-244.45-312.74l66.23,607.76Z" transform="translate(-997.91 -545.9)"/><path class="cls-8" d="M1730.32,1547.44l-211.25,192.32-2.2-3.52-90.51-145.76c106.87-45.52,173.31-180.8,173.31-180.8l8.48,9Z" transform="translate(-997.91 -545.9)"/><g class="cls-6"><path class="cls-3" d="M1730.32,1547.44l-211.25,192.32-2.2-3.52c61-93.6,84.45-257.36,91.28-317.6Z" transform="translate(-997.91 -545.9)"/></g><path class="cls-3" d="M1515.61,1764.55l-112.67-181.49,17.16-7.31c100.23-42.7,164.6-171.82,165.23-173.12l10.15-20.65,157.67,166.31Zm-66.21-167.31L1522.5,1715l185-168.38-104.23-109.94C1581.31,1474.59,1527.28,1556.46,1449.4,1597.24Z" transform="translate(-997.91 -545.9)"/><path class="cls-8" d="M1491.31,1570.14s-126.59-113.88-207.23-144.41l-22.55,52.89,169.08,166.48Z" transform="translate(-997.91 -545.9)"/><path class="cls-3" d="M1430.61,1661.1a16,16,0,0,1-11.22-4.6L1250.31,1490a16,16,0,0,1-3.5-17.67l22.55-52.9a16,16,0,0,1,20.38-8.69c82.5,31.24,207,142.76,212.27,147.49a16,16,0,0,1,1.73,22l-60.69,75a16,16,0,0,1-11.54,5.9Zm-150.09-186.23,148.75,146.46,39.92-49.29c-30.23-26.12-114.23-96.26-176.65-125.35Z" transform="translate(-997.91 -545.9)"/><path class="cls-8" d="M1615.3,1260.12c63.6,253.57-11.66,485.56-11.66,485.56-246.25,88.44-111.9,331.22-111.9,331.22S1322,2175.14,1402,2273.3c69.7,85.47,303.81-12.73,315.13-137.43,0,0-40.27-126.6,22.16-169.95" transform="translate(-997.91 -545.9)"/><g class="cls-6"><path class="cls-3" d="M2695.83,2354.6c-266.76,219.6-1028.92,549.64-1302,588.84-143-227.19-140.58-539,9.13-766.74,2.73-4.23,5.5-8.43,8.36-12.62q15.35-22.8,32.55-44.52h0c16.12-10,27.56-15.64,27.56-15.64s-2.36-3.68-6-10.28a716.81,716.81,0,0,1,245.76-182.36c13.48-6.08,27.09-11.72,40.72-17,183.08-69.84,379.08-59.84,547.41,14.6,1,.48,2.11.92,3.15,1.44q23.72,10.56,46.6,23a241.79,241.79,0,0,1-28.32,21.64c-107.92,70.52-175.72,55.48-250.36,82.6-25.6,9.32-30.11,32.08-28,59-3,30.16,9.68,70.56,11.52,103.72,0,.64,0,1.28.08,1.92-1.92,39.72-14.2,86.12-50,127.28-63.56,73.24-182.24,83.16-251.32,40.32-2.48-1.52-4.88-3.12-7.24-4.8-18-12.76-26.6-30.08-29-49.28,5.36-49.48,37.4-103.76,53.8-127.92,3.52-5.2,6.32-9,8-11.08,0,0-3.6-3.88-9.24-9.84-4.24-4.56-9.67-10.32-15.59-16.6-5.13-5.4-10.61-11.12-15.93-16.68a98.17,98.17,0,0,1-14.24-19.16,274.7,274.7,0,0,0,12.09,48.4c-13,122.24-259.21,269.24-363.65,166-3.84,260.84,267.56,475.32,539.65,366,290.19-116.68,613.79-277.4,767.55-388.68Q2688.25,2330.24,2695.83,2354.6Z" transform="translate(-997.91 -545.9)"/></g><path class="cls-8" d="M2319.75,1684.6c-1.36,98.64-33.2,190.48-102.28,243.32-92.23,70.52-150.15,55.48-214,82.6-21.88,9.32-25.72,32.08-23.88,59-2.6,30.16,8.28,70.56,9.84,103.72,0,.64,0,1.28.08,1.92-1.64,39.72-12.16,86.12-42.72,127.28-54.32,73.24-155.76,83.16-214.76,40.32-2.12-1.52-4.2-3.12-6.2-4.8-15.36-12.76-22.72-30.08-24.8-49.28,4.56-49.48,32-103.76,46-127.92,3-5.2,5.4-9,6.8-11.08,0,0-3.08-3.88-7.88-9.84-3.63-4.56-8.28-10.32-13.36-16.6-4.36-5.4-9-11.12-13.6-16.68a99.65,99.65,0,0,1-12.16-19.16,312.13,312.13,0,0,0,10.32,48.4c-11.32,124.72-245.44,222.92-315.16,137.44-12.67-15.52-19.08-31-20.88-46.16-9.72-80.6,110.64-150.24,110.64-150.24s-67-121-19.72-223.24c19.68-42.6,59.2-82,131.6-108,0,0,17.8-54.84,28.76-140.36,2.8-21.92,5.16-45.84,6.68-71.36a965.64,965.64,0,0,0-3.4-157.92l414.24-171.44.6.6.77.76,1,1a15.83,15.83,0,0,0,1.23,1.24c2.12,2.16,5.12,5.2,8.92,9.12,17.68,18.2,52.16,54.44,89.48,97.48,58.8,67.8,124.52,152.44,142.52,210.2,5.16,16.52,9.56,33.4,13.16,50.44A547.21,547.21,0,0,1,2319.75,1684.6Z" transform="translate(-997.91 -545.9)"/><path class="cls-3" d="M1709.69,1988a12,12,0,0,1-11.44-8.38c-43.26-136.81-223.33-113-225.14-112.8a12,12,0,0,1-3.35-23.77c2-.26,202.06-26.61,251.37,129.33a12,12,0,0,1-11.44,15.62Z" transform="translate(-997.91 -545.9)"/><path class="cls-8" d="M1635.67,1376.06l-20.36-116A838.91,838.91,0,0,1,1635.67,1376.06Z" transform="translate(-997.91 -545.9)"/><path class="cls-3" d="M1484,2321.5c-40.6,0-73.89-13-94.36-38.09-21-25.7-28.83-53.78-23.4-83.45,11.13-60.78,76.6-110.15,104.78-128.88-15.78-34.09-51-126-18.74-211.55,21.35-56.66,67.87-99,138.35-126.07,11.71-41,64.68-248.21,9.19-469.45a16,16,0,1,1,31-7.78c64,255.1-8.83,484.74-12,494.39l-2.43,7.46-7.38,2.66c-65.46,23.51-108.12,60.49-126.8,109.91-34.53,91.36,22.92,197.46,23.5,198.52l7.56,13.73-13.55,7.85c-.9.53-90.85,53.37-102.09,115-3.71,20.28,1.77,39.06,16.73,57.41,22.72,27.87,73.26,34,131.88,16.1,71.37-21.82,146.63-77.33,154.6-141.9-6.34-21.77-36.67-138.81,29.29-184.61a16,16,0,1,1,18.25,26.28c-43.12,30-26.2,119.85-16,152l1,3.07-.28,3.21c-7.59,83.61-97.3,148.08-177.43,172.58C1530.18,2317.68,1506,2321.5,1484,2321.5Zm119.68-575.82h0Z" transform="translate(-997.91 -545.9)"/><path class="cls-8" d="M2068.36,1761.8l-47.85,40.64-509.28-232.28s34.6-20.32,128.48-48c62.68-18.48,151.8-40.24,274.72-61.44l26.85,52.48Z" transform="translate(-997.91 -545.9)"/><path class="cls-3" d="M2023.11,1821.22l-546.51-249.3,26.56-15.58c4-2.36,102.27-58.53,408.57-111.33l11.6-2,165,322.77Zm-473.47-251.15,468.25,213.59,30.44-25.86-142.76-279.24C1704.52,1513.9,1597,1550.68,1549.64,1570.07Z" transform="translate(-997.91 -545.9)"/><path class="cls-8" d="M1946.83,2167.24" transform="translate(-997.91 -545.9)"/><path class="cls-9" d="M1973.32,1379.1" transform="translate(-997.91 -545.9)"/><polygon class="cls-10" points="680.99 1343.16 1032.72 1253.98 887.05 967.8 535.32 1044.58 680.99 1343.16"/><polygon class="cls-10" points="680.99 1343.16 1032.72 1253.98 887.05 967.8 535.32 1044.58 680.99 1343.16"/><g class="cls-6"><path class="cls-3" d="M2014.63,1839.88l-269.92,68.44c-3.2,62.32-8.76,168.56-12.12,215-4.36-5.4-9-11.12-13.6-16.68a99.65,99.65,0,0,1-12.16-19.16,312.13,312.13,0,0,0,10.32,48.4c-11.32,124.72-245.44,222.92-315.16,137.44-12.67-15.52-19.08-31-20.88-46.16,56,80.6,216,4.64,244-20.88,30.48-27.76,34.56-42.6,15.48-147.44-10.31-56.64,3.88-99.4,25-130.44l-2.68.68h-53.2l-114.48-41-23.2-34.36c19.68-42.6,59.2-82,131.6-108,0,0,17.8-54.84,28.76-140.36L1869,1553.68Z" transform="translate(-997.91 -545.9)"/></g><polygon class="cls-11" points="1032.72 1253.98 681 1343.14 671.32 1323.34 535.32 1044.58 887.04 967.78 920.52 1033.54 1032.72 1253.98"/><g class="cls-12"><path class="cls-8" d="M1584.35,1639.21l103.44,247.59-8.88,2.24-9.68-19.8-136-278.76,351.72-76.8,6,11.68L1602.14,1603A26.83,26.83,0,0,0,1584.35,1639.21Z" transform="translate(-997.91 -545.9)"/></g><g class="cls-6"><path class="cls-3" d="M2030.63,1799.88,1678.91,1889l-9.68-19.8c6-80.4,172.28-121.64,172.28-121.64-28.6-101.48,48.85-153.12,76.92-168.16Z" transform="translate(-997.91 -545.9)"/></g><path class="cls-3" d="M1678.9,1904.06a15,15,0,0,1-13.48-8.42l-145.67-298.59a15,15,0,0,1,10.28-21.23L1881.76,1499a15,15,0,0,1,16.57,7.85L2044,1793.06a15,15,0,0,1-9.68,21.35l-351.73,89.19A15.1,15.1,0,0,1,1678.9,1904.06Zm-123.81-303,132,270.46,321.71-81.58-131.9-259.12Z" transform="translate(-997.91 -545.9)"/><polygon class="cls-11" points="535.32 1044.58 468.25 1045.1 627.79 1343.16 680.99 1343.16 535.32 1044.58"/><g class="cls-12"><polygon class="cls-8" points="549.4 1073.42 483.68 1073.94 468.24 1045.1 535.32 1044.58 549.4 1073.42"/></g><path class="cls-3" d="M1678.9,1904.06h-53.19a15,15,0,0,1-13.23-7.92l-159.54-298.07A15,15,0,0,1,1466,1576l67.07-.52a15.25,15.25,0,0,1,13.6,8.43l145.67,298.58a15,15,0,0,1-13.48,21.58Zm-44.21-30h20.2l-131-268.51-32.8.25Z" transform="translate(-997.91 -545.9)"/><polygon class="cls-11" points="627.8 1343.14 513.32 1302.1 467 1233.54 438.6 1191.54 365.6 1083.62 263.6 932.7 468.24 1045.1 626.76 1341.18 627.8 1343.14"/><g class="cls-12"><polygon class="cls-8" points="627.8 1343.14 606.68 1335.58 451 1064.98 289.56 971.1 263.6 932.7 468.24 1045.1 626.76 1341.18 627.8 1343.14"/></g><path class="cls-3" d="M1625.7,1904.06a15.1,15.1,0,0,1-5.06-.88l-114.45-41.06a15,15,0,0,1-7.36-5.72L1249.11,1487a15,15,0,0,1,19.64-21.55l204.63,112.38a15,15,0,0,1,6,6.07L1638.93,1882a15,15,0,0,1-13.23,22.08Zm-104.77-68.53,73.16,26.25L1455,1602l-146.31-80.35Z" transform="translate(-997.91 -545.9)"/><path class="cls-3" d="M1466.16,1591s1.18-37.16,31.44-41.49c25-3.57,42.61,39.45,42.61,39.45Z" transform="translate(-997.91 -545.9)"/><path class="cls-8" d="M2319.75,1681.72c0,1,0,1.92,0,2.88-1.36,98.64-33.2,190.48-102.28,243.32-92.23,70.52-150.15,55.48-214,82.6-21.88,9.32-25.72,32.08-23.88,59,1.73,25.8,8.6,55.4,9.84,80.68.36,7.92.44,16.28.08,25-1.64,39.72-12.16,86.12-42.72,127.28-56.28,75.88-163.08,83.8-221,35.52-15.36-12.76-22.72-30.08-24.8-49.28-.08-.64-.12-1.32-.16-2-4.76-52.32,28.28-118.24,45-146.88,3.52-6,6.33-10.4,7.88-12.64,0,0-18-22.12-34.84-42.08-42.56-50.6-40.8-175.4,21.88-237.6,17.16-17,37.88-29.92,59.36-39.72a272.06,272.06,0,0,1,104.68-24.24,288.94,288.94,0,0,1,93.45,12.44l57.88,17.6,59.91-1.28-29.6-271.64c14.28-14.08,25.56-36.56,23.73-71.52l-7.61-36.76-36.28-175.16-2.64-12.64s47.84,36.56,101.49,92c52.51,54.2,110.59,126.48,135,200.24a.93.93,0,0,0,.13.4c3.83,13.68,7.07,27.56,9.75,41.52A520,520,0,0,1,2319.75,1681.72Z" transform="translate(-997.91 -545.9)"/><g class="cls-6"><path class="cls-3" d="M2319.75,1681.72c0,1,0,1.92,0,2.88-1.36,98.64-33.2,190.48-102.28,243.32-92.23,70.52-150.15,55.48-214,82.6-21.88,9.32-25.72,32.08-23.88,59,1.73,25.8,8.6,55.4,9.84,80.68.36,7.92.44,16.28.08,25-1.64,39.72-12.16,86.12-42.72,127.28-56.28,75.88-163.08,83.8-221,35.52-15.36-12.76-22.72-30.08-24.8-49.28-.08-.64-.12-1.32-.16-2,61,51,165.2,68.68,223-38.88,66-123.08-8.88-173.44-10.4-232.4s107.48-44.2,264.44-116.2C2270.87,1856.68,2306.32,1756.4,2319.75,1681.72Z" transform="translate(-997.91 -545.9)"/></g><path class="cls-3" d="M2054.66,1818.75c-13.54-1.72-26.89-4.09-40.16-6.72-6.64-1.29-13.27-2.64-19.85-4.13-6.36-1.22-12.67-2.49-19-3.51-25.37-4.05-50.9-5.64-76.19-3.8a281.75,281.75,0,0,0-73.86,15.53c-23.69,8.49-46.48,20.13-65.15,35.79a103.91,103.91,0,0,0-12.85,12.65c-1.94,2.26-4.14,4.27-5.88,6.72l-5.26,7.35-2.63,3.66-2.25,4-4.54,7.94c-2.7,5.49-5.25,11.12-7.57,16.83a217.86,217.86,0,0,0-13.39,73.43c-.41,25,4.16,50.2,13.61,71.82,2.85,5,5.24,10.41,8.74,14.6l2.4,3.38c.78,1.12,2.07,2.55,3.08,3.82l6.47,7.81,25.86,31.26,7.6,9.18-6.88,10.08c-2.2,3.22-4.72,7.36-7,11.28s-4.61,8.07-6.82,12.18q-6.64,12.35-12.44,25.12c-7.66,17-14.28,34.43-18.72,52s-6.9,35.45-4.72,51.65a64.07,64.07,0,0,0,6.79,22.13,50.05,50.05,0,0,0,14.65,16.78c26.51,20.72,63.51,28,98.07,23,34.89-4.72,67.39-22.79,90.22-49.17,2.72-3.45,5.7-6.59,8.27-10.25s5.2-7.28,7.46-11.15a192.73,192.73,0,0,0,12.59-23.72,215.09,215.09,0,0,0,15.23-51.82,255.79,255.79,0,0,0,2.92-54.56c-1-17.78-4.6-36.72-7.29-56.41a286,286,0,0,1-2.83-30.72c-.15-10.7.15-22.05,4.19-34.28a56.21,56.21,0,0,1,9.66-17.78,51.62,51.62,0,0,1,16.32-13.1c1.44-.7,3.19-1.6,4.41-2.07l3.65-1.42,7.31-2.84c4.9-1.73,9.85-3.28,14.78-4.81,19.79-5.71,39.3-9.12,57.82-13.17s36.27-8.85,53.27-15.66a277.79,277.79,0,0,0,48.79-25.5c7.88-4.82,15.3-10.51,22.87-15.93,3.69-2.77,7-5.65,10.55-8.46,3.27-3.08,6.69-6,9.86-9.18,25.52-25.4,44.44-57.54,56.58-92.34s18.44-72,20-109.42a498.34,498.34,0,0,0-8.5-112.22,526.48,526.48,0,0,0-13.42-54.85l-2-6.75c-.7-2.2-1.48-4.16-2.21-6.24-1.33-4.12-3.31-8.24-5-12.37s-4-8.21-5.94-12.32l-6.67-12.2c-18.65-32.36-41.54-63.23-65.5-93.08-48.36-59.76-104.78-112.27-147.83-178.37a5.47,5.47,0,0,1,7.45-7.64c17.13,10.46,32.44,22.74,47.26,35.57s28.65,26.65,42.18,40.77c27.07,28.25,51.44,59,76,89.6,24.4,30.8,48.11,62.34,68.22,97.29l7.29,13.34c2.24,4.64,4.6,9.14,6.71,13.89s4.23,9.47,5.93,14.59c.88,2.49,1.86,5.06,2.63,7.49l2.18,7.17a556.25,556.25,0,0,1,14.23,58.18,529.88,529.88,0,0,1,9,119.47c-1.68,40.08-8.27,80.31-21.81,118.78s-34.64,75-64.24,104.41c-3.67,3.68-7.63,7.09-11.44,10.64-4,3.25-8.08,6.71-12.15,9.76-8.2,5.89-16.21,12-24.88,17.33a309.86,309.86,0,0,1-54.25,28.32c-19,7.64-38.91,13-58.29,17.19s-38.16,7.55-55.68,12.63c-4.33,1.35-8.65,2.7-12.9,4.2l-6.25,2.43-3.13,1.21c-1,.4-1.42.7-2.18,1-5.1,2.7-8.09,6.29-10.3,12.63s-2.73,14.63-2.54,23.25a254.93,254.93,0,0,0,2.55,27.22c2.51,18.75,6.3,38,7.54,59a288.61,288.61,0,0,1-3.3,61.48c-6.62,40.74-23.23,80.54-50.93,112.67-27.87,32.27-67.63,54.17-109.82,59.91a176.82,176.82,0,0,1-63.64-2.28c-20.93-4.69-41.32-13.59-58.75-27.19l-3.32-2.47-3.3-3.06a54,54,0,0,1-6.26-6.47,59.65,59.65,0,0,1-5.54-7.15,64.63,64.63,0,0,1-4.69-7.68,96.1,96.1,0,0,1-10.35-33.15c-2.87-22.44.55-43.61,5.44-63.65,5.08-20.05,12.33-39,20.6-57.4q6.24-13.76,13.39-27,3.58-6.64,7.41-13.21c2.62-4.44,5.11-8.61,8.39-13.41l.71,19.26-25.62-31-6.41-7.74c-1.09-1.37-2.07-2.42-3.26-4l-3.51-4.8c-5-6.31-8.23-13.23-11.93-20-2.72-7-6-13.89-7.81-21-1-3.55-2.16-7.08-3-10.65l-2.16-10.74a92.56,92.56,0,0,1-1.66-10.77l-1.27-10.79c-.28-7.2-.89-14.41-.72-21.6a249.63,249.63,0,0,1,15.5-84.63c2.75-6.74,5.65-13.46,8.83-20l5.36-9.67,2.7-4.82,3.17-4.59,6.4-9.13c2.15-3,4.86-5.72,7.28-8.58s4.92-5.74,7.59-8.29,5.38-5.08,8.14-7.51c22.32-19.39,48-33.3,74.77-43.2a270.43,270.43,0,0,1,41.3-11.65,298.71,298.71,0,0,1,42.53-4.94c28.48-.83,57.11,2.06,84.19,10.24,6.82,1.82,13.43,4.35,20,6.76,6.31,2.42,12.56,5,18.79,7.61,12.5,5.19,24.91,10.65,37.12,16.75a5.41,5.41,0,0,1-3.1,10.2Z" transform="translate(-997.91 -545.9)"/><g class="cls-6"><path class="cls-3" d="M2311.55,1615.4a155.27,155.27,0,0,1-8.12,41.08c-37.24,107.76-167.8,171.48-268.8,171.48-60.76,0-99.84-10.24-129.72-44.36a161.59,161.59,0,0,1-15.08-20.48c-35.12-55.92-17.4-130.2,57-165,6-2.84,19.16-4.36,19.16-4.36l-20.72-40.48-6.91-13.56s9.83,2.24,23.79,5.24c31.36,6.8,83.44,17.48,91,15.32a79.31,79.31,0,0,0,33.48-19.52c14.28-14.08,25.56-36.56,23.73-71.52l20.08-38.13-51.29-171-15.32-15.48s47.84,36.56,101.49,92c52.51,54.2,110.59,126.48,135,200.24a.93.93,0,0,0,.13.4,236.43,236.43,0,0,1,9.75,41.52A180.58,180.58,0,0,1,2311.55,1615.4Z" transform="translate(-997.91 -545.9)"/></g><path class="cls-8" d="M2307.55,1575.4a155.27,155.27,0,0,1-8.12,41.08c-37.24,107.76-167.8,171.48-268.8,171.48-71.56,0-113-14.2-144.8-64.84-35.12-55.92-17.4-130.2,57-165,6-2.84,19.16-4.36,19.16-4.36l-20.72-40.48-6.91-13.56s9.83,2.24,23.79,5.24c31.36,6.8,83.44,17.48,91,15.32,22.76-6.56,60.48-29.28,57.21-91l-7.61-36.76-36.28-175.16-2.64-12.64s47.84,36.56,101.49,92C2232.43,1370.16,2313.87,1476.88,2307.55,1575.4Z" transform="translate(-997.91 -545.9)"/><g class="cls-6"><path class="cls-3" d="M2307.55,1575.4a155.27,155.27,0,0,1-8.12,41.08c-37.24,107.76-167.8,171.48-268.8,171.48-71.56,0-113-14.2-144.8-64.84a112,112,0,0,1-16.55-46c30.23,37.24,69.91,48.28,133,48.28,101,0,231.55-63.72,268.79-171.48a154.87,154.87,0,0,0,8.12-41.08c1.68-26-2.76-52.56-11.52-78.92C2293.75,1480,2310.55,1528.6,2307.55,1575.4Z" transform="translate(-997.91 -545.9)"/></g><path class="cls-3" d="M2063,1200.39c12.44,5.21,23.65,11.84,34.55,19a327.16,327.16,0,0,1,31.21,23.32,606.68,606.68,0,0,1,56.12,53.94q26.21,28.89,50,60c15.83,20.77,30.93,42.27,44.16,65.16s24.8,47,33,72.78,13,53.27,11.25,81.26c-.08,7-1.38,13.94-2.51,20.89-.79,7-3.28,13.69-5,20.51-.51,1.68-.91,3.43-1.52,5l-1.95,4.81-3.92,9.6c-2.35,6.53-6,12.41-9.17,18.51-13.36,24.08-31,45.34-51,63.55a306.61,306.61,0,0,1-66.18,45.76,359.71,359.71,0,0,1-74.7,28.86,307.84,307.84,0,0,1-79.89,10.45,361.62,361.62,0,0,1-40-2.2,195.87,195.87,0,0,1-40.72-8.74,132.23,132.23,0,0,1-38.26-20.34,153.93,153.93,0,0,1-49.45-69.06,119.26,119.26,0,0,1-6.39-43.27c.57-14.65,3.37-29.38,9.22-42.86a136.06,136.06,0,0,1,23.25-36.76c2.42-2.67,5-5.12,7.59-7.67,1.29-1.25,2.53-2.56,3.87-3.75l4.16-3.38c2.8-2.2,5.5-4.57,8.41-6.6l8.88-5.83a82.53,82.53,0,0,1,9.16-5.24l4.66-2.45,2.34-1.22,1.16-.61.59-.3,1-.43a64.11,64.11,0,0,1,12.36-3.61c3.69-.75,7-1.27,10.79-1.76L1947.71,1561l-27.63-54-15.53-30.39,33.34,7.5c18.8,4.24,37.8,8.35,56.69,12.12,9.45,1.91,18.9,3.69,28.25,5.3,4.7.8,9.3,1.44,13.86,2,2.11.16,4.49.44,6.37.52l2.59.07h.33c.06,0-.11,0-.16,0a1.77,1.77,0,0,0-.46,0,1.83,1.83,0,0,0-.81.29,67.79,67.79,0,0,0,20.1-10.94,75,75,0,0,0,15.62-16.27,118.65,118.65,0,0,0,11.3-21.41c3.5-8,5.77-16.77,9.39-26.29l.19-.52a5.61,5.61,0,0,1,10.46,0,69.42,69.42,0,0,1,4.53,15.45c.36,2.67.86,5.37,1.08,8.11s.12,5.5.09,8.29a77.59,77.59,0,0,1-8.92,33,80,80,0,0,1-23,27,92.37,92.37,0,0,1-31.75,15.21,41.52,41.52,0,0,1-4.44.65l-2.28.17-1.06,0-.59,0-4.7-.33c-3-.28-5.41-.69-8.14-1-5.09-.76-10.1-1.58-15-2.45-9.83-1.69-19.52-3.53-29.15-5.47-19.29-3.85-38.35-8-57.53-12.29l17.8-22.89,27.62,54,10.39,20.31-22.76,2.86c-2.5.32-5.55.8-8.12,1.33a39,39,0,0,0-6,1.61l-7.28,3.83a59.87,59.87,0,0,0-7.45,4.26l-7.15,4.66c-2.33,1.62-4.41,3.51-6.64,5.24l-3.3,2.64c-1,.93-2,2-3,2.93-2,2-4,3.87-5.89,5.92a103.76,103.76,0,0,0-17.53,27.68c-4.4,10-6.35,20.83-6.79,31.61a87.16,87.16,0,0,0,4.74,32.08,114.08,114.08,0,0,0,15.55,29.55c13.41,18.88,30.72,32.64,52.18,39.74,91.28,25.59,198-3.61,269.62-67.56,17.74-16.17,33.07-34.75,44.5-55.34,2.7-5.21,5.89-10.22,7.81-15.77l3.33-8.14,1.68-4.06c.52-1.36.79-2.75,1.21-4.12,1.36-5.55,3.52-10.9,4.09-16.65.89-5.66,2-11.28,2-17.1,1.41-23.06-2.51-46.71-9.8-69.58s-17.88-45.13-30.23-66.45c-24.77-42.71-56.54-81.92-91.54-117.81q-26.07-27.12-52.69-53.94c-8.86-9-17.55-18.13-26-27.63s-16.87-19.2-24.61-29.67l-.08-.11a5.51,5.51,0,0,1,6.56-8.36Z" transform="translate(-997.91 -545.9)"/><path class="cls-8" d="M1393.22,1337.54c444.68,418.66,1048-178,665.64-624.94C1613.84,273.24,990.77,890.58,1393.22,1337.54Z" transform="translate(-997.91 -545.9)"/><path class="cls-8" d="M1393.22,1337.54c444.68,418.66,1048-178,665.64-624.94C1613.84,273.24,990.77,890.58,1393.22,1337.54Z" transform="translate(-997.91 -545.9)"/><g class="cls-6"><path class="cls-3" d="M2161.24,1296.64q-4.44,9.18-9.37,18.12a466.24,466.24,0,0,1-193.76,190.16c-5.56,2.88-11.16,5.68-16.83,8.32l-26.85-52.48c-122.92,21.2-212,43-274.72,61.44a963.13,963.13,0,0,0-4-146.16l414.24-171.44.6.6.77.76,1,1a15.83,15.83,0,0,0,1.23,1.24c2.12,2.16,5.12,5.2,8.92,9.12l-2.64-12.64S2107.59,1241.2,2161.24,1296.64Z" transform="translate(-997.91 -545.9)"/></g><path class="cls-8" d="M1393.22,1337.54c444.68,418.66,1048-178,665.64-624.94C1613.84,273.24,990.77,890.58,1393.22,1337.54Z" transform="translate(-997.91 -545.9)"/><path class="cls-3" d="M1723.45,1491.05c-120.36,0-236.93-50-338-145.2l-.65-.68c-96-106.58-141.33-230.27-131.17-357.69,9.07-113.67,61.78-221.85,148.42-304.6,86.46-82.58,196.35-129.56,309.41-132.27,127.37-3.09,250.4,50.15,355.46,153.88l.66.7c91.31,106.73,133.65,229.38,122.43,354.69-10,112.06-62.45,218.48-147.58,299.65-84.93,81-193.11,127.61-304.6,131.28C1733,1491,1728.22,1491.05,1723.45,1491.05Zm-322.07-161.49c222.4,209.1,474.24,157.45,625.26,13.46,147.54-140.68,217.88-395.49,23.87-622.63-221.37-218.25-483.14-163.91-632.75-21C1266.66,843.69,1197.13,1102.39,1401.38,1329.56Z" transform="translate(-997.91 -545.9)"/><g class="cls-6"><path class="cls-3" d="M1393.22,1337.53c377.78,368.29,948.67-47.84,742.08-510.93,15.62,164.63-36.61,186.33-96.29,289.5-178.35,333.54-630.4,255.11-770.91-46.41A456.64,456.64,0,0,0,1393.22,1337.53Z" transform="translate(-997.91 -545.9)"/></g><path class="cls-13" d="M1723.44,1495.64c-121.54,0-239.2-50.43-341.18-146.45l-.93-.94C1284.5,1240.7,1238.74,1115.83,1249,987.12c9.16-114.81,62.37-224,149.83-307.56,87.29-83.37,198.26-130.8,312.47-133.54,128.8-3,252.83,50.57,358.8,155.2l.92,1c92.14,107.7,134.85,231.52,123.51,358.09-10.13,113.17-63,220.63-149,302.57-85.75,81.76-195,128.83-307.62,132.54C1733.1,1495.56,1728.26,1495.64,1723.44,1495.64Zm-318.77-169.3c220.17,206.87,469.39,155.83,618.8,13.36,146-139.22,215.61-391.34,23.67-616.18C1828,507.61,1569,561.32,1420.93,702.7,1271.42,845.49,1202.65,1101.49,1404.67,1326.34Z" transform="translate(-997.91 -545.9)"/><path class="cls-3" d="M1723.44,1495.64c-121.54,0-239.2-50.43-341.18-146.45l-.93-.94C1284.5,1240.7,1238.74,1115.83,1249,987.12c9.16-114.81,62.37-224,149.83-307.56,87.29-83.37,198.26-130.8,312.47-133.54,128.8-3,252.83,50.57,358.8,155.2l.92,1c92.14,107.7,134.85,231.52,123.51,358.09-10.13,113.17-63,220.63-149,302.57-85.75,81.76-195,128.83-307.62,132.54C1733.1,1495.56,1728.26,1495.64,1723.44,1495.64Zm-318.77-169.3c220.17,206.87,469.39,155.83,618.8,13.36,146-139.22,215.61-391.34,23.67-616.18C1828,507.61,1569,561.32,1420.93,702.7,1271.42,845.49,1202.65,1101.49,1404.67,1326.34Z" transform="translate(-997.91 -545.9)"/><path class="cls-14" d="M1484.44,1410.79C1994.91,1575,2258.77,963,1848.28,735.18,1373,507.91,1032,1106.16,1484.44,1410.79Z" transform="translate(-997.91 -545.9)"/><g class="cls-6"><path class="cls-15" d="M1942.78,805c136,268.77-115.52,643.6-528.34,510.81-36.57-24.62-67.92-51.16-94.47-79,34.33,62.78,88.07,122.59,164.47,174C1949.1,1560.25,2209.39,1066.62,1942.78,805Z" transform="translate(-997.91 -545.9)"/></g><path class="cls-3" d="M1696.47,1487.62q-6.4,0-12.79-.22c-106.4-3.66-209.88-52.41-299.26-141l-.06-.07c-146.82-147.72-191.5-432.44-24-620.84l1.54-1.46c96.49-77.11,227.1-110.32,358.34-91.13,130.78,19.13,245.82,87.86,315.61,188.56,65.07,99.23,88.17,209.36,67,318.75-19.21,99.16-73.58,189.55-153.11,254.55C1876.13,1454.91,1786.65,1487.62,1696.47,1487.62ZM1402.06,1328.7c196.49,194.7,409.3,146.86,531.83,46.72,140.84-115.1,214-337.53,81.23-540-65.68-94.76-174.55-159.66-298.51-177.79s-247.27,12.93-338.29,85.25C1221,920.81,1263.47,1189.23,1402.06,1328.7Z" transform="translate(-997.91 -545.9)"/><path class="cls-3" d="M1651.32,1454.37c-55.3,0-113-9.44-171.78-28.34l-2.16-.7-1.88-1.27C1366,1350.33,1294,1254.14,1267.35,1145.87a385.64,385.64,0,0,1,39.73-284.79c48.4-84.66,125.86-146.87,218.12-175.16,102.5-31.44,216.6-19.39,330,34.82l.86.45c96.67,53.65,163.44,131.68,193.1,225.63,26.85,85.09,21.32,178.82-15.57,263.95a400.45,400.45,0,0,1-204.08,206.64C1774.58,1442,1714.52,1454.37,1651.32,1454.37Zm-159.82-58.12c259.12,82.34,444.15-40,512.71-198.2,62.21-143.55,35.81-337.89-163.28-448.65-235.1-112.18-423.54-16.81-506.07,127.56C1250.07,1025.3,1265.78,1243.15,1491.5,1396.25Z" transform="translate(-997.91 -545.9)"/><path class="cls-8" d="M2247.69,998.44c18.49,214.56-195,251.16-233.29,48.1C1986.76,822.38,2215,783.23,2247.69,998.44Z" transform="translate(-997.91 -545.9)"/><g class="cls-6"><path class="cls-3" d="M2150.24,1180.19c-63.91,11.44-127.95-54.73-137.29-144.41,61.18,81.85,121.53-91.27,118.09-136C2302.72,902.46,2268.08,1161.7,2150.24,1180.19Z" transform="translate(-997.91 -545.9)"/></g><path class="cls-3" d="M2135.22,1196.7c-56.28,0-117-43.84-136.55-147.19l-.15-1c-15.28-123.89,44.93-198.1,112.3-207.37,60.88-8.38,134.68,36.51,152.69,154.9l.12,1c10.71,124.29-51.45,190.1-113.75,198.64A108.3,108.3,0,0,1,2135.22,1196.7Zm-105-152.62c17.41,91.36,70.41,126.07,115.33,119.92,47.69-6.54,95-60.53,86.25-163.67-14.87-96.58-70.8-133.82-116.61-127.5C2063.43,880,2017.69,941.05,2030.21,1044.08Z" transform="translate(-997.91 -545.9)"/><path class="cls-8" d="M2258.57,1008.07c14.8,173.89-144.66,204-175.67,39.78C2059.39,864.27,2232.73,831.73,2258.57,1008.07Z" transform="translate(-997.91 -545.9)"/><path class="cls-3" d="M2175,1172.1c-43.83,0-91.72-36.19-107.79-121.28l-.14-.94c-13.34-104.19,33.87-166.15,87.4-173.5,47.71-6.58,105.58,31.15,120,129.37l.11,1c8.82,103.58-39.87,158-88.85,164.65A79.36,79.36,0,0,1,2175,1172.1Zm-76.25-126.75c13.57,71.09,51.23,98.59,82.62,94.32,35.48-4.85,67.9-51,61.34-129.76-11.33-76.31-51.41-106.28-83.89-101.82C2120.93,913.28,2088.2,962.09,2098.71,1045.35Z" transform="translate(-997.91 -545.9)"/><g class="cls-12"><path class="cls-8" d="M1952.55,965.76c-3.77,90.59-106.79,87.89-116.73,9C1828.91,874.64,1950.38,875.86,1952.55,965.76Z" transform="translate(-997.91 -545.9)"/></g><g class="cls-12"><path class="cls-8" d="M1932.7,1111.3c-3.44,34.56-48.52,34.25-48.26-3.64C1887.89,1073.1,1933,1073.41,1932.7,1111.3Z" transform="translate(-997.91 -545.9)"/></g><g class="cls-12"><path class="cls-8" d="M1348.31,1150.65C1210.68,832.75,1544,705.16,1665.5,749.94,1448.82,819.25,1384.7,979.32,1348.31,1150.65Z" transform="translate(-997.91 -545.9)"/></g><g class="cls-6"><path class="cls-3" d="M2083.77,1087.9c-8.83-22.91-11.41-48.32-8.59-72.82,57.66,106,159.37,28,165.87-59.73C2307.29,1116.73,2156.17,1236.79,2083.77,1087.9Z" transform="translate(-997.91 -545.9)"/></g><path class="cls-3" d="M1990.16,923.18a27.15,27.15,0,0,1-5.85-.64c-21.65-4.75-30.49-34.13-32.69-43a16,16,0,0,1,31.06-7.7h0c1.69,6.72,5.16,14.53,7.87,18.13a27.29,27.29,0,0,0,2.6-2.89,16,16,0,1,1,25,20C2008,919.73,1998,923.18,1990.16,923.18Z" transform="translate(-997.91 -545.9)"/><g class="cls-6"><path class="cls-3" d="M1625.71,1889l-114.48-41-46.32-68.56-28.4-42-73-107.92c-.56-5.72-1-11.6-1.36-17.72,0,0,66.32,14.84,109,77.84,19.84,29.32,23.56,62.12,15.17,78.92,31.91,36.36,53.89,84.48,138.35,118.52Z" transform="translate(-997.91 -545.9)"/></g><path class="cls-8" d="M1329.41,1571.78s66.33,14.86,109,77.87c27.74,41,24,88.87-.34,90.12S1336.54,1706.23,1329.41,1571.78Z" transform="translate(-997.91 -545.9)"/><g class="cls-6"><path class="cls-3" d="M1438.07,1739.76c-23.16,1.2-94.64-30.44-107.28-150.28,25.08,72.36,75.92,93.16,94.8,92.2,10.12-.52,16.73-9.16,18.88-22.08C1465.43,1698,1460.43,1738.6,1438.07,1739.76Z" transform="translate(-997.91 -545.9)"/></g><path class="cls-3" d="M1436.65,1755.8c-37.19,0-115.87-44.58-123.21-183.17l-1.12-21.07,20.59,4.61c3,.66,73,17,118.75,84.51,21.58,31.86,28.27,70.93,16.27,95-6,12.1-16.61,19.41-29,20C1438.17,1755.78,1437.42,1755.8,1436.65,1755.8Zm-89.08-160.7c13.73,105.8,75.86,128.7,89.17,128.7h.52c.76,0,1.59-1.5,2-2.36,4.85-9.75,3.72-36.45-14.12-62.81C1401.24,1623.29,1368.76,1604.37,1347.57,1595.1Z" transform="translate(-997.91 -545.9)"/><path class="cls-3" d="M2262,1693.72a12,12,0,0,1-10.81-17.19c25.58-53.34-10.93-97.57-35-119.19-46.09-41.46-107.83-57.56-130.19-43.77a12,12,0,1,1-12.61-20.42c38.07-23.5,112.87,5,158.85,46.34,49.4,44.43,64.18,98.16,40.56,147.42A12,12,0,0,1,2262,1693.72Z" transform="translate(-997.91 -545.9)"/><path class="cls-3" d="M1979.78,2059.7a12.19,12.19,0,0,1-2-.16,12,12,0,0,1-9.88-13.8c19.11-115.37-34.74-167.84-68.54-188.85-46.69-29-109.12-31.37-145.22-5.47a12,12,0,1,1-14-19.49c44.24-31.76,116.53-29.84,171.89,4.58,66.17,41.13,95.16,118.82,79.54,213.16A12,12,0,0,1,1979.78,2059.7Z" transform="translate(-997.91 -545.9)"/><path class="cls-3" d="M1750.76,2104.89c4,2.44,8.88,5.58,13.44,8.24s9.33,5.42,14.09,7.91a173,173,0,0,0,29.54,12.4,100.21,100.21,0,0,0,31.77,4.16l8.24-.45,8.21-1.53c1.38-.27,2.81-.45,4.19-.8l4.06-1.29,8.38-2.53.22-.07a1.72,1.72,0,0,1,1.56,3c-2.36,1.85-4.76,3.74-7.24,5.55l-3.76,2.76c-1.31.81-2.71,1.46-4.07,2.2-2.75,1.45-5.56,2.9-8.42,4.25l-9,3a97.9,97.9,0,0,1-38.2,3,122.84,122.84,0,0,1-36.88-10.25,91.53,91.53,0,0,1-8.51-4.29,87.4,87.4,0,0,1-8.13-4.92,91.83,91.83,0,0,1-15.19-12.2,12,12,0,0,1,14.73-18.75Z" transform="translate(-997.91 -545.9)"/><path class="cls-3" d="M1496.39,2059.22c0-.17.46.44.72.73l1.08,1.2c.65.84,1.56,1.65,2.32,2.5,1.65,1.66,3.32,3.35,5.2,4.9a97.64,97.64,0,0,0,11.87,8.73,112.49,112.49,0,0,0,28.58,12.34c10.35,3.19,21.49,4.46,32.83,5.7l17.29.82c5.81-.11,11.69-.1,17.69,0h.12a1.74,1.74,0,0,1,.57,3.36c-5.61,2.11-11.33,4.09-17.12,5.95-5.86,1.58-11.83,2.81-17.86,4.11-12.15,1.65-24.71,2.89-37.48,1.29-12.68-1.36-25.78-4.45-37.64-11.07a77.4,77.4,0,0,1-16.57-12.06,61.07,61.07,0,0,1-7-7.8c-1.06-1.45-2.1-2.85-3.07-4.47-.5-.81-1-1.53-1.42-2.45s-.84-1.58-1.53-3.06a12,12,0,1,1,21.46-10.76Z" transform="translate(-997.91 -545.9)"/><path class="cls-16" d="M2454.94,1064.54a13,13,0,0,1-11.21-19.53l31.64-54.19a30.77,30.77,0,0,0-3.6-36.28,193.78,193.78,0,0,1-50-128.47c-.83-105.87,84.57-193.65,190.36-195.69,1.28,0,2.55,0,3.83,0a194.21,194.21,0,0,1,194.17,197.34c-1.67,105.34-88.79,191.05-194.19,191.05h-1.68a194.32,194.32,0,0,1-48.7-6.61,29.17,29.17,0,0,0-7.56-1,29.9,29.9,0,0,0-15.08,4.11l-81.45,47.55A13,13,0,0,1,2454.94,1064.54Z" transform="translate(-997.91 -545.9)"/><path class="cls-3" d="M2616,643.32c101.05,0,182.79,82.73,181.19,184.16-1.56,98.49-82.89,178.27-181.22,178.27h-1.56a180.71,180.71,0,0,1-45.45-6.17,42.26,42.26,0,0,0-10.92-1.44,42.9,42.9,0,0,0-21.63,5.88l-81.44,47.55,31.64-54.19a43.91,43.91,0,0,0-5.17-51.52A180.35,180.35,0,0,1,2434.76,826c-.77-98.72,78.92-180.71,177.63-182.61,1.2,0,2.39,0,3.58,0m0-26c-1.36,0-2.72,0-4.08,0-112.86,2.18-204,95.83-203.09,208.78a206.69,206.69,0,0,0,53.34,137.06,17.86,17.86,0,0,1,2,21l-31.64,54.19A26,26,0,0,0,2468,1074l81.44-47.55a17,17,0,0,1,8.54-2.34,16,16,0,0,1,4.19.56,207.64,207.64,0,0,0,52,7h1.78c112.46,0,205.4-91.43,207.17-203.82A207.17,207.17,0,0,0,2616,617.36Z" transform="translate(-997.91 -545.9)"/><g class="cls-17"><path class="cls-8" d="M2602.88,657.63a181.21,181.21,0,0,1,184.76,184.12,179.3,179.3,0,0,1-25.72,89.72,180.85,180.85,0,0,0-149.53-288.11c-64.39,1.24-120.67,36.57-151.82,88.39C2492.94,687.82,2544.59,658.75,2602.88,657.63Z" transform="translate(-997.91 -545.9)"/></g><g class="cls-18"><path class="cls-19" d="M2642.93,967.69a181.11,181.11,0,0,1-45.45-6.18,37.5,37.5,0,0,0-6.68-.88c-27-1.79-51.14-16.29-67.6-37.77-4.06-5.28-8.68-10-13.25-15.07A180.38,180.38,0,0,1,2486.63,698a180.65,180.65,0,0,0-5.69,247.33c12.85,14.35,15.53,35.1,5.82,51.73l-31.82,54.5,81.44-47.55a43,43,0,0,1,32.77-4.38,181.33,181.33,0,0,0,45.24,6.12c68.15.58,128.33-37.19,159.74-93.09A180.81,180.81,0,0,1,2642.93,967.69Z" transform="translate(-997.91 -545.9)"/></g><path class="cls-8" d="M2549.89,764h0c18.51-18.51,48.53-15.19,67,3.32l2.88,2.88,2.88-2.88c18.52-18.51,48.53-21.83,67-3.32h0a47.42,47.42,0,0,1,0,67l-2.88,2.88-58.21,58.21a12.51,12.51,0,0,1-17.68,0l-58.2-58.21-2.88-2.88A47.4,47.4,0,0,1,2549.89,764Z" transform="translate(-997.91 -545.9)"/><g class="cls-17"><path class="cls-20" d="M2556,789.48c5.69-7.85,16.75-8.22,20.09-5.79s-2.3,6.73-8,14.57-9.3,16.27-12.64,13.84S2550.25,797.32,2556,789.48Z" transform="translate(-997.91 -545.9)"/></g><g class="cls-17"><path class="cls-20" d="M2591.33,773.3a5.34,5.34,0,0,1-9.48,3.69c-1.34-1.9-.14-5,3-6.27S2591,771,2591.33,773.3Z" transform="translate(-997.91 -545.9)"/></g></svg>