<svg id="Layer_1" data-name="Layer 1" xmlns="http://www.w3.org/2000/svg" viewBox="0 0 3381.69 3358.18"><defs><style>.cls-1{fill:#fff;}</style></defs><path class="cls-1" d="M1000,3546.32c0,7-14.36,13.11-35.82,16.48a25.32,25.32,0,0,0-21.06,21.06c-3.37,21.46-9.48,35.83-16.49,35.83s-13.12-14.37-16.48-35.83a25.32,25.32,0,0,0-21.07-21.06c-21.47-3.36-35.87-9.48-35.87-16.48s14.39-13.17,35.85-16.51a25.33,25.33,0,0,0,21.09-21.08c3.37-21.47,9.48-35.84,16.48-35.84s13.12,14.37,16.49,35.85a25.32,25.32,0,0,0,21.09,21.07C985.64,3533.15,1000,3539.27,1000,3546.32Z" transform="translate(-309.15 -320.91)"/><path class="cls-1" d="M864.15,1783.7c0,7-14.36,13.11-35.82,16.48a25.32,25.32,0,0,0-21.06,21.06c-3.37,21.46-9.48,35.82-16.49,35.82s-13.11-14.36-16.48-35.82a25.32,25.32,0,0,0-21.07-21.06c-21.47-3.37-35.87-9.48-35.87-16.48s14.39-13.17,35.85-16.51a25.33,25.33,0,0,0,21.09-21.08c3.37-21.48,9.48-35.84,16.48-35.84s13.12,14.37,16.49,35.85a25.32,25.32,0,0,0,21.09,21.07C849.8,1770.53,864.15,1776.65,864.15,1783.7Z" transform="translate(-309.15 -320.91)"/><path class="cls-1" d="M3486.67,2522.38c0,7-14.37,13.12-35.83,16.49a25.32,25.32,0,0,0-21.06,21.06c-3.37,21.46-9.48,35.82-16.48,35.82s-13.12-14.36-16.49-35.82a25.32,25.32,0,0,0-21.06-21.06c-21.48-3.37-35.88-9.48-35.88-16.49s14.39-13.16,35.85-16.5a25.32,25.32,0,0,0,21.09-21.08c3.37-21.48,9.48-35.84,16.49-35.84s13.11,14.36,16.48,35.84a25.32,25.32,0,0,0,21.09,21.08C3472.31,2509.22,3486.67,2515.34,3486.67,2522.38Z" transform="translate(-309.15 -320.91)"/><path class="cls-1" d="M2806.17,412.25c0,8.72-17.87,16.32-44.56,20.51A31.51,31.51,0,0,0,2735.4,459c-4.18,26.7-11.79,44.57-20.5,44.57s-16.32-17.87-20.51-44.57a31.5,31.5,0,0,0-26.21-26.2c-26.71-4.19-44.63-11.79-44.63-20.51s17.9-16.38,44.6-20.53a31.52,31.52,0,0,0,26.24-26.22c4.19-26.72,11.79-44.59,20.51-44.59s16.32,17.87,20.5,44.59a31.53,31.53,0,0,0,26.24,26.22C2788.32,395.87,2806.17,403.49,2806.17,412.25Z" transform="translate(-309.15 -320.91)"/><circle class="cls-1" cx="3349.22" cy="727.82" r="23.5"/><circle class="cls-1" cx="3358.19" cy="2613.86" r="23.5"/><circle class="cls-1" cx="2633.83" cy="3005.04" r="23.5"/><circle class="cls-1" cx="213.56" cy="685.94" r="23.5"/><circle class="cls-1" cx="2789.67" cy="374.24" r="23.5"/><circle class="cls-1" cx="631.43" cy="465.95" r="23.5"/><circle class="cls-1" cx="133.71" cy="3100.04" r="23.5"/><circle class="cls-1" cx="2967.87" cy="1060.59" r="12.09"/><circle class="cls-1" cx="2920.09" cy="3346.1" r="12.09"/><circle class="cls-1" cx="1620.67" cy="3021.97" r="12.09"/><circle class="cls-1" cx="313.3" cy="134.28" r="12.09"/><circle class="cls-1" cx="12.09" cy="1142.18" r="12.09"/><circle class="cls-1" cx="269.62" cy="2759.82" r="12.09"/><circle class="cls-1" cx="3139.99" cy="2881.09" r="12.09"/></svg>